<svg width="52" height="52" viewBox="0 0 52 52" fill="none" xmlns="http://www.w3.org/2000/svg">
<path fill-rule="evenodd" clip-rule="evenodd" d="M25.831 13.3941C26.8803 13.3941 27.731 14.2448 27.731 15.2941L27.731 45.8823C27.731 46.9317 26.8803 47.7823 25.831 47.7823C24.7816 47.7823 23.931 46.9317 23.931 45.8823L23.931 15.2941C23.931 14.2448 24.7816 13.3941 25.831 13.3941Z" fill="white"/>
<path fill-rule="evenodd" clip-rule="evenodd" d="M47.6133 31.3529C47.6133 32.4023 46.7626 33.2529 45.7133 33.2529L5.94857 33.2529C4.89923 33.2529 4.04858 32.4023 4.04858 31.3529C4.04858 30.3036 4.89924 29.4529 5.94857 29.4529L45.7133 29.4529C46.7626 29.4529 47.6133 30.3036 47.6133 31.3529Z" fill="white"/>
<path fill-rule="evenodd" clip-rule="evenodd" d="M13.7899 8.72163C12.1592 8.00141 11.117 7.91699 10.5767 8.10105C9.72917 8.38976 9.4582 8.82214 9.40044 9.02211C9.36532 9.14366 9.29313 9.56522 10.0007 10.2551C10.7411 10.9769 12.2225 11.8371 14.8365 12.4762C16.4194 12.8631 18.3711 13.1574 20.7411 13.2996C20.0904 12.7688 19.3857 12.217 18.6516 11.6773C17.0308 10.4859 15.331 9.40227 13.7899 8.72163ZM25.8312 15.2707C27.1634 13.916 27.1631 13.9157 27.1629 13.9155L27.1621 13.9147L27.1522 13.905L27.1253 13.8788C27.1023 13.8564 27.0691 13.8241 27.0262 13.7829C26.9405 13.7003 26.8161 13.5814 26.6571 13.4317C26.3392 13.1325 25.8822 12.7099 25.3189 12.2092C24.1954 11.2106 22.6346 9.88897 20.9022 8.61553C19.1827 7.3515 17.2289 6.0864 15.3251 5.24556C13.5109 4.44429 11.3168 3.8345 9.35135 4.50403C7.69313 5.06891 6.24664 6.24726 5.74971 7.96751C5.23013 9.76616 5.91037 11.5743 7.34801 12.976C8.75295 14.3457 10.954 15.4389 13.9341 16.1675C16.9388 16.902 20.8681 17.2989 25.88 17.1701C26.6422 17.1505 27.3189 16.6771 27.5987 15.9678C27.8784 15.2585 27.7065 14.4501 27.1629 13.9155L25.8312 15.2707Z" fill="white"/>
<path fill-rule="evenodd" clip-rule="evenodd" d="M37.8722 8.72163C39.5029 8.00141 40.5451 7.91699 41.0854 8.10105C41.9329 8.38976 42.2039 8.82214 42.2617 9.02211C42.2968 9.14366 42.369 9.56522 41.6614 10.2551C40.9211 10.9769 39.4396 11.8371 36.8256 12.4762C35.2427 12.8631 33.291 13.1574 30.921 13.2996C31.5717 12.7688 32.2764 12.217 33.0105 11.6773C34.6313 10.4859 36.3311 9.40227 37.8722 8.72163ZM25.8309 15.2707C24.4987 13.916 24.499 13.9157 24.4993 13.9155L24.5 13.9147L24.5099 13.905L24.5368 13.8788C24.5598 13.8564 24.593 13.8241 24.6359 13.7829C24.7216 13.7003 24.846 13.5814 25.005 13.4317C25.3229 13.1325 25.7799 12.7099 26.3432 12.2092C27.4667 11.2106 29.0275 9.88897 30.7599 8.61553C32.4794 7.3515 34.4332 6.0864 36.337 5.24556C38.1512 4.44429 40.3453 3.8345 42.3108 4.50403C43.969 5.06891 45.4155 6.24726 45.9124 7.96751C46.432 9.76616 45.7517 11.5743 44.3141 12.976C42.9092 14.3457 40.7082 15.4389 37.728 16.1675C34.7234 16.902 30.794 17.2989 25.7821 17.1701C25.0199 17.1505 24.3432 16.6771 24.0634 15.9678C23.7837 15.2585 23.9556 14.4501 24.4993 13.9155L25.8309 15.2707Z" fill="white"/>
<path fill-rule="evenodd" clip-rule="evenodd" d="M42.3916 19H8.95158C7.69237 19 6.67158 20.0208 6.67158 21.28V42.56C6.67158 43.8192 7.69237 44.84 8.95158 44.84H42.3916C43.6508 44.84 44.6716 43.8192 44.6716 42.56V21.28C44.6716 20.0208 43.6508 19 42.3916 19ZM8.95158 15.2C5.59369 15.2 2.87158 17.9221 2.87158 21.28V42.56C2.87158 45.9179 5.59369 48.64 8.95158 48.64H42.3916C45.7495 48.64 48.4716 45.9179 48.4716 42.56V21.28C48.4716 17.9221 45.7495 15.2 42.3916 15.2H8.95158Z" fill="white"/>
</svg>
