<svg width="52" height="52" viewBox="0 0 52 52" fill="none" xmlns="http://www.w3.org/2000/svg">
<path fill-rule="evenodd" clip-rule="evenodd" d="M32.7472 3.03918H9.06961C5.7126 3.03918 2.99121 5.76057 2.99121 9.11758V42.5488C2.99121 45.9058 5.7126 48.6272 9.06961 48.6272H42.5008C45.8578 48.6272 48.5792 45.9058 48.5792 42.5488V18.8711C47.3943 19.3508 46.1164 19.649 44.7802 19.7314V42.5488C44.7802 43.8077 43.7597 44.8282 42.5008 44.8282H9.06961C7.81073 44.8282 6.79021 43.8077 6.79021 42.5488V9.11758C6.79021 7.85871 7.81073 6.83819 9.06961 6.83819H31.8869C31.9693 5.50197 32.2676 4.22415 32.7472 3.03918Z" fill="white"/>
<path d="M42.5013 16.7156C41.3761 16.7156 40.464 15.8034 40.464 14.6782C40.464 14.3525 40.464 14.0306 40.464 13.7126C40.464 12.7468 40.464 11.8363 40.464 10.9812V7.2539C40.464 6.39878 40.464 5.48833 40.464 4.52255C40.464 4.2045 40.464 3.88264 40.464 3.55696C40.464 2.43175 41.3761 1.51956 42.5013 1.51956C43.6265 1.51956 44.5387 2.43175 44.5387 3.55696C44.5387 3.88264 44.5387 4.2045 44.5387 4.52255C44.5387 5.48833 44.5387 6.39878 44.5387 7.2539V10.9812C44.5387 11.8363 44.5387 12.7468 44.5387 13.7126C44.5387 14.0306 44.5387 14.3525 44.5387 14.6782C44.5387 15.8034 43.6265 16.7156 42.5013 16.7156ZM36.8575 11.0718C35.7783 11.0718 34.9033 10.1968 34.9033 9.11756C34.9033 8.03829 35.7783 7.16336 36.8575 7.16336C37.2271 7.16336 37.5918 7.16336 37.9517 7.16336C38.9321 7.16336 39.8512 7.16336 40.7091 7.16336H44.2783C45.1463 7.16336 46.0705 7.16336 47.0509 7.16336C47.4108 7.16336 47.7756 7.16336 48.1451 7.16336C49.2244 7.16336 50.0993 8.03829 50.0993 9.11756C50.0993 10.1968 49.2244 11.0718 48.1451 11.0718C47.7756 11.0718 47.4108 11.0718 47.0509 11.0718C46.0705 11.0718 45.1463 11.0718 44.2783 11.0718H40.7091C39.8512 11.0718 38.9321 11.0718 37.9517 11.0718C37.5918 11.0718 37.2271 11.0718 36.8575 11.0718Z" fill="white"/>
<g clip-path="url(#clip0_686_780)">
<path fill-rule="evenodd" clip-rule="evenodd" d="M37.3853 21.2217C37.5535 20.6686 37.3853 20.2614 36.5799 20.2614H33.9206C33.2439 20.2614 32.9319 20.6129 32.7627 21.0009C32.7627 21.0009 31.4103 24.2387 29.4945 26.3418C28.8745 26.9516 28.5929 27.1451 28.2546 27.1451C28.0854 27.1451 27.8311 26.9516 27.8311 26.3975V21.2217C27.8311 20.5572 27.6447 20.2614 27.0814 20.2614H22.8995C22.477 20.2614 22.2228 20.5693 22.2228 20.8621C22.2228 21.4912 23.1811 21.6371 23.2794 23.4079V27.2556C23.2794 28.0995 23.1244 28.2524 22.786 28.2524C21.8844 28.2524 19.6911 24.9995 18.3893 21.2775C18.1371 20.5531 17.8818 20.2614 17.202 20.2614H14.5407C13.7809 20.2614 13.6289 20.6129 13.6289 21.0009C13.6289 21.6918 14.5305 25.1241 17.8281 29.6636C20.0264 32.7636 23.1213 34.4443 25.9407 34.4443C27.6315 34.4443 27.8402 34.0715 27.8402 33.4282V31.085C27.8402 30.3383 28.0003 30.1894 28.5362 30.1894C28.9313 30.1894 29.607 30.3839 31.1854 31.8782C32.9886 33.65 33.2854 34.4443 34.3005 34.4443H36.9598C37.7196 34.4443 38.1005 34.0715 37.8817 33.334C37.6406 32.6005 36.7795 31.5358 35.6378 30.2725C35.0178 29.5532 34.0878 28.7782 33.8051 28.3902C33.4111 27.8928 33.5235 27.6709 33.8051 27.2282C33.8051 27.2282 37.047 22.7444 37.3843 21.2217H37.3853Z" fill="white"/>
</g>
<defs>
<clipPath id="clip0_686_780">
<rect width="24.3136" height="24.3136" fill="white" transform="translate(13.6289 15.196)"/>
</clipPath>
</defs>
</svg>
