<svg width="47" height="46" viewBox="0 0 47 46" fill="none" xmlns="http://www.w3.org/2000/svg">
<path fill-rule="evenodd" clip-rule="evenodd" d="M30.7472 0.0391846H7.06961C3.7126 0.0391846 0.991211 2.76057 0.991211 6.11758V39.5488C0.991211 42.9058 3.7126 45.6272 7.06961 45.6272H40.5008C43.8578 45.6272 46.5792 42.9058 46.5792 39.5488V15.8711C45.3943 16.3508 44.1164 16.649 42.7802 16.7314V39.5488C42.7802 40.8077 41.7597 41.8282 40.5008 41.8282H7.06961C5.81073 41.8282 4.79021 40.8077 4.79021 39.5488V6.11758C4.79021 4.85871 5.81073 3.83819 7.06961 3.83819H29.8869C29.9693 2.50197 30.2676 1.22415 30.7472 0.0391846Z" fill="white"/>
</svg>
